<svg version="1.1" x="0px" y="0px" viewBox="0 0 85 85" style="enable-background:new 0 0 85 85;" xml:space="preserve">
<g>
<path stroke="rgb(255,68,21)" fill="rgb(255,68,21)" d="M14.4,71.1c-1.2-2.1-3.9-2.7-3.4-5.5c0-0.2-0.4-0.6-0.6-0.6c-4.1-0.8-2.8-4.9-4.3-7.2c-0.3-0.5,0.2-1.6-0.1-1.9
c-2-2-0.2-3.1,1-4.3c-0.6-0.7-1.3-1.4-1.9-2.1c1.5-0.8-0.1-1.5,0-2.2c0.3-2.4-0.6-4.3-2-6.2c-0.7-1-1.8-2.1-0.2-3.8
c0.8-0.8,2.2-2.7,0.4-4.7c-1.1-1.2,1.1-2.3,1.4-3.6c0-0.1,1.3-0.1,1.2-0.4c-1.1-3.7,2.8-4.4,3.9-6.8c0.4-0.9,1.6-1.3,2-2.2
c0.2-0.6-1.6-1.3-0.4-2.5c0.8,0.6,1.6,1.4,2.5,1.8c1,0.4,1.4-1.3,2.6-1c0.6,0.2,1.4,0.2,1.5-0.7c0.1-1.5,1.4-2.3,2.4-3
c1.9-1.4,2.2-4.2,4.3-5.2c1.9-0.9,3.6-1.9,5.1-3.3c1.8-1.5,3.8-1.2,6,0.1c0.3-0.4,0.7-0.9,1.2-1.3c0.7-0.6,1.4-2.1,2.2-1.5
c1.1,0.7,2,0.2,3,0.4c1.4,0.3,2.8,1.8,4.5,0.5c0.5-0.4,1.2,0.2,1.6,0.7C51.1,8.2,55.1,8.5,59,9c1.3,0.2,2.7,0.1,4,0
c1.1-0.1,1.9,0.2,2.6,1.1c1,1.4,2.4,2.2,4.2,2c0.4-0.1,0.9,0.2,1.3,0.5c1,1,1.9,2.1,2.6,3.4c0.5,1,2,1.5,3,2.2
c0.5,0.4,0.2,1,0.4,1.3c1.4,2.4,2.1,5.1,2.9,7.8c0.2,0.6,0.2,1.3-0.5,1.8c-0.8,0.6-0.7,2-0.4,2.2c2.3,1.6,2,4,2,6.2
c0,0.1,0.2,0.3,0.3,0.4c3.3,1.8,2.5,5,2.7,7.9c0.3,3.6,0.5,3.6-1.4,6.1c-0.5,0.7-0.5,0.9,0.1,1.5c0.3,0.3,0.3,0.9,0.2,1.3
C81.7,57.9,77,62.4,73,64c-1.2,0.5-2.1,1.3-2.5,2.2c-0.6,1.2-1.6,1.6-2.4,2.5c-1.2,1.2-2.5,1.3-3.9,1.7c1.2,1.3,0,2.7-0.6,3.4
c-1.4,1.7-2.7,4-5.6,3.3c-0.2,0-0.4-0.1-0.5,0c-2,2.9-5.1,2.7-8.2,3.3c-2.1,0.4-3.8,1-5.8-0.1c-1.7-0.9-3.7,0.1-5.7-0.6
c-1.9-0.7-3.5-1.4-4.8-3c-1-1.3-2.2-1.9-3.8-1.6c-1.2,0.2-2.2-0.2-3-1.2c-0.7-0.9-1.3-0.7-2.4-0.2c-2.8,1.2-5.1,0.3-6.8-2.5
C16.1,69.4,15.5,70,14.4,71.1z M52.1,52.6c-1.5,1-2.5,2.1-2.1,3.8c0.4,1.4-0.8,2.4-0.9,3.6c-0.2,1.3-1.3,0.7-1.8,1.2
c-0.7,0.8-0.2,1.9-0.3,2.9c-0.1,0.6-0.4,0.7-0.9,1c-1.8,1.2-4.1,1.7-4.5,4.7c-0.2,1.2-1.8,2.7-3.9,2.4c-0.9-0.1-2-0.5-2.8,0.5
c1.3,1.2,3.1-0.1,4.5,1.3c0.9,0.8,3,0.8,4.3,0.7c1.3-0.1,2.8-1.1,4.1-0.9c0.8,0.1,1-0.1,1.4-0.4c0.6-0.5,1-1.4,2-1.1
c2.1,0.6,2.5-1.2,3.4-2.3c1-1.2,2.9-2,3.1-3.7c0.3-1.9,1.1-3.2,2.2-4.6c1.2-1.6-0.8-3.1-0.1-4.7c0.1-0.1,0.1-0.3,0.2-0.4
c1.3-1,0.9-1.9-0.1-2.8c-0.6-0.5-1.4-1.1-1-2c1.1-2.5-3.1-2.7-2.1-5.1c0,0-0.5-0.4-0.8-0.4c-2.6,0.1-4.3-1.7-6.2-3.5
c-0.8,0.8-1.5,1.3-1.9,1.9c-0.5,0.9,0.3,1.5,1,2c1,0.7,1.1,1.6,0.9,2.6C49.7,50.8,51,51.4,52.1,52.6z M63.8,33c-0.7,0-1.3,0.1-2,0
c-4.5-0.5-8.5,0.5-12.9,2.9c-0.7,0.4-1,0.7-0.9,1.3c0.1,0.5,0.5,0.8,1,0.7c1.8-0.2,3.2,1,5.1,1.1c3.3,0.2,5.6,3.1,8.7,4.2
c1.6,0.5,0.9,2.3,1.4,3.4c0.3,0.5,1,1.3,1.4,1.2c1.7-0.2,1.2,1.2,1.6,1.9c1.2,1.8,0.3,4.5,2.7,5.9c0.3,0.1,0.2,1.5-0.1,1.8
c-1.7,1.5,0.2,1.7,0.7,2.4c0.5-0.5,1-0.9,1.4-1.4c1.4-2.1,3.2-4,3.9-6.3c1.1-3.8-0.9-7.6-0.9-11.5c0-0.2-0.4-0.6-0.6-0.6
c-2.1-0.2-3-2-4.1-3.3c-1.9-2.3-4-1.9-6.2-1C64,34.8,63.9,34,63.8,33z M10.7,40.6c1.5,0.5,2.6,0.8,3.2,1.9c1.3,2.2,2.7,4.2,5.5,4.6
c1,0.2,0,1.9,1.6,2c1.4,0.1,2.8-0.5,4.2,0.6c1.4,1.1,3-0.5,4.3-0.9c1.8-0.5,4.6,0.1,5.2-1.4c0.9-2.1,3.8-1.8,4.1-4.4
c-2.5,0-5-0.1-7.5-0.9c-2.7-0.9-4.6-3.1-7.4-3.7c-1.6-0.4-0.3-3-1.4-3.2c-1.7-0.4-2.7-1.6-3.3-2.7c-0.6-1.1-0.8-2.9,1-4.2
c-3.5-0.3-3.4-2.9-3.3-6.2c-3.4,4.7-7.1,8.2-5.8,13.7c0.7,0.3,1.8,0.6,1.6,0.7C11.3,37.4,12.7,39.5,10.7,40.6z M47.4,19
c-0.7,1.1,0.2,2.4-0.8,3c-1.8,0.9-2.2,2.6-3.2,4.1c-0.9,1.3-1.2,2.5-1.3,4c-0.1,1.4,0.5,2.6,0.6,3.9c0,0.3-0.7,0.7-0.1,1
c0.3,0.1,0.8,0.2,1,0c0.8-0.6,1.9-1.3,2.1-2.1c0.5-1.8,2.4-1.8,3.2-3.1c1.1-1.9,2.9-1.9,4.8-1.8c0.2,0,0.5-0.5,0.7-0.6
c2.6-1.7,5.8-1.1,8.5-2.3c0.6-0.3,1.5-0.2,2.3,0.4c2.6,2,5.7,1.6,9.2,1.4c-1-1.4-2.5-2-2.3-3.7c0.2-2-3-0.9-3-3.2
c0-1.9-0.9,0-1.3-0.1c-0.9-0.2-2.2-0.7-2.3-1.2C65,16.7,63.7,17,62.5,17c-0.5,0-1,0.1-1.5,0c-3.3-0.5-6-0.2-8.7,1
C50.6,18.8,49,19.3,47.4,19z M42.5,47c-2,2-3.9,3.9-5.9,5.9c-0.6,0.6-1,1.3-2,1.1c-1.4-0.3-2.4,0.9-3.5,1.2
c-3.1,0.9-6.5,1.3-9.7,1.5c-0.7,0-2.8-0.7-2.8-2.6c-1.1,1.2-2.6,0.9-4,0.9C14,55,14,53.7,13,54.4c0,0.9,0,1.9,0,2.9
c0,0.6-0.2,1.5,0.6,1.6c1.9,0.2,1.5,3.1,3.2,2.9c1.5-0.1,1.8,3.2,3.7,1.1c0.6,3,3.5,1.7,4.8,3c1.5-0.8-0.1-2.4,1.4-3
c0.6,1-0.2,2.1,0.7,2.9c0.5-0.5,1-1.2,2-1c1.8,0.4,3.7-0.1,5-1.1c1.1-0.8,2.1-0.7,3.1-1c1.4-0.5,1.2-2.2,2.1-3.1
c0.2-0.2,0.5-0.7,0.7-0.7c1.9,0.1,1.6-1.1,1.6-2.3c0-0.6-0.3-1.6,0.5-1.8c2-0.6,0.6-2.2,1.1-3.2C44.4,50.1,44.5,48.3,42.5,47z
M39.2,38.7c-0.9-0.6-1.5-1.3-1.2-2.2c0.4-1.6-1.2-1.1-1.7-1.7c-0.3-0.3-0.4-1.1-0.2-1.3c1-1.4-0.1-2.8,0-4.2
c0-0.8-0.1-1.5,0.6-2.3c0.8-0.9-1.2-1.4-0.6-2.4c0.1-0.1,0-0.3,0-0.5c0.3-1.4,1.7-1.6,2.7-2.3c1.4-1.1-1.7-2.1-0.5-3.3
c1-1,1.6-2.6,3.5-2.4c0.4,0,0.9-0.3,1.3-0.5c-1.1-2.4,2.3-3,1.9-5.5c-1.4,0-2.9-0.1-4.4,0c-1.5,0.2-3.8-1.1-4.4,0.7
c-0.9,2.6-2.6,0.4-3.6,1.2c-0.2,0.2-0.5,0.6-0.5,0.8c0.6,1.8-1.4,1.8-1.8,2.7c-1.1,2.2-4.4,3.9-2.4,7.2c-1.4,0.6,0.3,2-0.1,2
c-2.3,0.3-1.6,2-1.7,3.3l2.5,4c1.6,1.7,2.5,3.9,4.8,5c0.9,0.4,1.4,1.3,2.2,0c0.9,0.6,1.3,2,2.7,2C38.4,39,38.5,38.9,39.2,38.7z"></path>
</g>
</svg>
